HIERARCHY
ROOT Hips
{
 OFFSET 0.000000 0.000000 0.000000
 CHANNELS 6 Xposition Yposition Zposition Yrotation Xrotation Zrotation
 JOINT Chest
 {
  OFFSET 0.000000 9.585900 0.002600
  CHANNELS 3 Yrotation Xrotation Zrotation
  JOINT Chest2
  {
   OFFSET 0.000000 9.601200 -0.005300
   CHANNELS 3 Yrotation Xrotation Zrotation
   JOINT Chest3
   {
    OFFSET 0.000000 9.561800 0.000000
    CHANNELS 3 Yrotation Xrotation Zrotation
    JOINT Chest4
    {
     OFFSET 0.000000 9.552100 0.000000
     CHANNELS 3 Yrotation Xrotation Zrotation
     JOINT Neck
     {
      OFFSET 0.000000 14.453000 0.000000
      CHANNELS 3 Yrotation Xrotation Zrotation
      JOINT Head
      {
       OFFSET 0.000000 8.936500 -0.011300
       CHANNELS 3 Yrotation Xrotation Zrotation
       End Site
       {
        OFFSET 0.000000 17.073600 -0.006000
       }
      }
     }
     JOINT RightCollar
     {
      OFFSET -2.921100 9.558500 0.000000
      CHANNELS 3 Yrotation Xrotation Zrotation
      JOINT RightShoulder
      {
       OFFSET -13.519700 0.000000 0.000000
       CHANNELS 3 Yrotation Xrotation Zrotation
       JOINT RightElbow
       {
        OFFSET 0.000000 -29.696600 0.000000
        CHANNELS 3 Yrotation Xrotation Zrotation
        JOINT RightWrist
        {
         OFFSET 0.000000 -24.004700 0.000000
         CHANNELS 3 Yrotation Xrotation Zrotation
         End Site
         {
          OFFSET 0.000000 -17.728500 0.000000
         }
        }
       }
      }
     }
     JOINT LeftCollar
     {
      OFFSET 2.921100 9.558500 0.000000
      CHANNELS 3 Yrotation Xrotation Zrotation
      JOINT LeftShoulder
      {
       OFFSET 13.519700 0.000000 0.000000
       CHANNELS 3 Yrotation Xrotation Zrotation
       JOINT LeftElbow
       {
        OFFSET 0.000000 -29.696600 0.000000
        CHANNELS 3 Yrotation Xrotation Zrotation
        JOINT LeftWrist
        {
         OFFSET 0.000000 -24.004700 0.000000
         CHANNELS 3 Yrotation Xrotation Zrotation
         End Site
         {
          OFFSET 0.000000 -17.728500 0.000000
         }
        }
       }
      }
     }
    }
   }
  }
 }
 JOINT RightHip
 {
  OFFSET -7.771700 -0.012900 -0.001300
  CHANNELS 3 Yrotation Xrotation Zrotation
  JOINT RightKnee
  {
   OFFSET 0.000000 -40.869800 0.001200
   CHANNELS 3 Yrotation Xrotation Zrotation
   JOINT RightAnkle
   {
    OFFSET 0.000000 -39.717900 0.002100
    CHANNELS 3 Yrotation Xrotation Zrotation
    JOINT RightToe
    {
     OFFSET 0.000000 -4.965400 11.033500
     CHANNELS 3 Yrotation Xrotation Zrotation
     End Site
     {
      OFFSET 0.000000 -1.423100 5.872300
     }
    }
   }
  }
 }
 JOINT LeftHip
 {
  OFFSET 7.771700 -0.012900 -0.001300
  CHANNELS 3 Yrotation Xrotation Zrotation
  JOINT LeftKnee
  {
   OFFSET 0.000000 -40.869800 0.001200
   CHANNELS 3 Yrotation Xrotation Zrotation
   JOINT LeftAnkle
   {
    OFFSET 0.000000 -39.717900 0.002100
    CHANNELS 3 Yrotation Xrotation Zrotation
    JOINT LeftToe
    {
     OFFSET 0.000000 -4.965400 11.033500
     CHANNELS 3 Yrotation Xrotation Zrotation
     End Site
     {
      OFFSET 0.000000 -1.423100 5.872300
     }
    }
   }
  }
 }
}
MOTION
Frames: 6
Frame Time: 0.008333
0.000000 85.388000 0.000000 0.000000 -5.767877 0.000000 0.000000 11.653817 0.000000 0.000000 -5.885947 0.000000 0.000000 -0.000000 0.000000 0.000000 -0.000000 0.000000 0.000000 12.528835 0.000000 0.000000 0.711642 0.000000 0.000000 -0.000000 0.000000 0.000000 0.000000 -90.000000 0.000000 -2.309062 0.000000 0.000000 2.309062 0.000000 0.000000 -0.000000 0.000000 0.000000 -0.000000 90.000000 0.000000 -2.309062 0.000000 0.000000 2.309062 0.000000 0.000000 8.520406 0.000000 0.000000 1.905762 0.000000 -0.000000 -4.658285 0.000000 0.000000 -0.000000 0.000000 0.000000 8.520406 0.000000 0.000000 1.905762 0.000000 -0.000000 -4.658285 0.000000 0.000000 -0.000000 0.000000
-55.268035 55.325439 47.199271 -178.888831 -31.436694 -9.688326 -0.339117 14.821029 7.819460 -0.437116 8.511604 3.431570 -0.456773 10.634530 4.297678 -0.429069 8.505366 3.436643 12.941477 20.756842 -1.737453 15.084999 -2.627350 -5.001618 -1.071983 2.679464 -3.421353 -14.657578 -6.513484 4.874799 96.333585 -85.213494 -79.325489 12.144362 -7.704289 -18.398280 -10.983403 1.666641 -4.457652 0.159478 -19.625623 0.565650 -112.645619 -49.768215 121.768082 18.828937 -29.395508 17.143938 -17.988006 -35.278334 3.923995 -28.479777 87.340912 -32.216375 1.576427 -18.130238 1.784053 -0.053990 0.460172 -0.020097 -13.449851 -46.603661 13.704111 169.658446 79.923299 164.414061 -1.425223 -16.173810 2.374495 -0.751702 -2.341128 -0.304319
-55.281978 55.327676 47.193908 -178.876469 -31.341637 -9.659321 -0.380831 14.734749 7.779494 -0.489263 8.491545 3.409024 -0.491026 10.584945 4.290734 -0.456013 8.465529 3.431641 12.884802 20.623150 -1.808728 15.034323 -2.789548 -5.070359 -1.029748 2.632494 -3.396137 -14.634469 -6.445532 5.021551 94.723323 -85.044881 -77.694788 12.175268 -7.575797 -18.529846 -10.927491 1.653133 -4.433933 0.213065 -19.178035 0.557288 -112.508387 -49.733081 121.700669 18.654537 -29.351872 17.013143 -18.010712 -35.373851 3.918392 -28.630237 87.343129 -32.381105 1.527721 -18.137727 1.813115 -0.036146 0.458655 -0.020600 -13.432667 -46.677058 13.713901 169.944574 79.950029 164.648823 -1.458821 -16.242909 2.441670 -0.733220 -2.282105 -0.301643
-55.289474 55.332218 47.184119 -178.868620 -31.245496 -9.674143 -0.427151 14.669875 7.764833 -0.522929 8.452453 3.392869 -0.529640 10.531722 4.280655 -0.486394 8.422714 3.424203 12.821677 20.494931 -1.879083 14.975581 -2.945820 -5.136349 -0.995638 2.586657 -3.363156 -14.574385 -6.377540 5.096390 93.484974 -84.913841 -76.423983 12.233747 -7.458276 -18.666068 -10.872268 1.632604 -4.405314 0.354958 -18.678258 0.560374 -112.521345 -49.596972 121.760523 18.492866 -29.472296 16.951323 -18.052951 -35.447605 3.956018 -28.474449 87.343114 -32.227390 1.506659 -18.142518 1.826178 -0.062525 0.455769 -0.021203 -13.478576 -46.756110 13.774036 170.069953 79.951677 164.748063 -1.459365 -16.260420 2.468075 -0.740389 -2.277650 -0.303166
-55.297185 55.336823 47.170267 -178.855513 -31.139601 -9.694735 -0.509541 14.636641 7.699437 -0.518866 8.376687 3.415750 -0.570963 10.474465 4.269225 -0.518844 8.376637 3.415774 12.746897 20.374003 -1.948825 14.902425 -3.094741 -5.198467 -0.968322 2.545865 -3.325951 -14.508024 -6.304291 5.138986 92.267394 -84.799855 -75.189241 12.319914 -7.386439 -18.741047 -10.814153 1.606875 -4.374182 0.568468 -18.134616 0.571685 -112.667005 -49.384125 121.924269 18.364374 -29.738758 16.907901 -18.080178 -35.526128 3.985420 -28.324177 87.343577 -32.062711 1.492610 -18.156277 1.840043 -0.075856 0.456433 -0.020722 -13.527555 -46.833234 13.852248 170.262212 79.959024 164.910004 -1.493254 -16.309972 2.500178 -0.719658 -2.244648 -0.302105
-55.305147 55.341456 47.151506 -178.840133 -31.030314 -9.716700 -0.558546 14.558891 7.679592 -0.525759 8.344497 3.422300 -0.591995 10.444892 4.263406 -0.609811 8.281159 3.391431 12.656424 20.260995 -2.016883 14.809491 -3.236246 -5.254347 -0.947342 2.507854 -3.285791 -14.457140 -6.237831 5.178558 91.447854 -84.594888 -74.352802 12.333703 -7.331703 -18.732894 -10.751539 1.573955 -4.342266 0.825289 -17.556412 0.590297 -112.900867 -49.115100 122.155587 18.277293 -30.116235 16.841499 -18.121311 -35.604503 4.033289 -28.455737 87.340906 -32.195618 1.455748 -18.173570 1.867125 -0.054617 0.454573 -0.018863 -13.583299 -46.914178 13.936020 170.465942 79.958760 165.078777 -1.521052 -16.352957 2.523831 -0.707497 -2.223865 -0.284410
